<svg enable-background="new 0 0 128 128" viewBox="0 0 128 128" xmlns="http://www.w3.org/2000/svg" xmlns:xlink="http://www.w3.org/1999/xlink"><linearGradient id="a"><stop offset="0" stop-color="#fff"/><stop offset=".3912" stop-color="#fdfdfd"/><stop offset=".547" stop-color="#f6f6f6"/><stop offset=".661" stop-color="#eaeaea"/><stop offset=".7545" stop-color="#d8d8d8"/><stop offset=".8355" stop-color="#c2c2c2"/><stop offset=".9078" stop-color="#a6a6a6"/><stop offset=".9722" stop-color="#868686"/><stop offset="1" stop-color="#757575"/></linearGradient><linearGradient id="b" gradientUnits="userSpaceOnUse" x1="64.045" x2="64.045" xlink:href="#a" y1="4.4845" y2="124.57"/><linearGradient id="c" gradientUnits="userSpaceOnUse" x1="93.922" x2="93.922" xlink:href="#a" y1="4.4845" y2="124.57"/><linearGradient id="d" gradientUnits="userSpaceOnUse" x1="82.589" x2="102.56" y1="27.34" y2="13.536"><stop offset="0" stop-color="#bdbdbd"/><stop offset="1" stop-color="#fff"/></linearGradient><path d="m88.86 27.92c-1.82-.08-3.31-1.52-3.41-3.34-.66-11.17-3.89-18.72-8.88-20.59h-56.73c-1.67 0-3.03 1.36-3.03 3.03v113.84c0 1.68 1.36 3.03 3.03 3.03h88.42c1.67 0 3.03-1.36 3.03-3.03v-85.95c-2.64-5.29-13.56-6.59-22.43-6.99z" fill="url(#b)"/><path d="m76.56 3.99c4.99 1.87 8.22 9.42 8.88 20.59.11 1.82 1.59 3.26 3.41 3.34 8.88.4 19.8 1.7 22.43 6.99 0 0 0-5.12-13-18.24-12.02-12.14-21.72-12.68-21.72-12.68z" fill="url(#c)"/><path d="m76.56 3.99c4.99 1.87 5.98 8.72 6.67 19.88.27 4.29 4.16 4.74 5.99 4.83 8.88.4 19.26 1.14 21.9 6.43 0 0 .17-5.35-12.82-18.47-12.04-12.13-21.74-12.67-21.74-12.67z" fill="url(#d)"/><g style="fill:none;stroke:#757575;stroke-linecap:round;stroke-linejoin:round;stroke-miterlimit:10;stroke-width:4"><path d="m31.16 38.67h65.51"/><path d="m31.16 53.3h65.51"/><path d="m31.16 67.93h65.51"/><path d="m31.16 82.55h65.51"/><path d="m31.16 97.18h28.02"/></g><path d="m76.35 6.9c.72.08 9.23 1.2 19.72 11.79 10.73 10.83 12.01 15.74 12.13 16.29l-.03 85.83-88.45-.03.03-113.88h56.6m.12-3h-56.72c-1.67 0-3.03 1.36-3.03 3.03v113.84c0 1.68 1.36 3.03 3.03 3.03h88.42c1.67 0 3.03-1.36 3.03-3.03v-85.95s0-5.12-13-18.24c-12.03-12.14-21.73-12.68-21.73-12.68z" fill="#424242" opacity=".2"/></svg>